<svg width="370" height="30" viewBox="0 0 370 30" fill="none" xmlns="http://www.w3.org/2000/svg">
<path d="M370 14.9899C370 17.1122 369.637 19.0866 368.911 20.9134C368.199 22.7401 367.189 24.3318 365.882 25.6884C364.576 27.0316 362.999 28.086 361.151 28.8516C359.317 29.6172 357.278 30 355.034 30C352.791 30 350.745 29.6172 348.898 28.8516C347.05 28.086 345.466 27.0316 344.146 25.6884C342.84 24.3318 341.824 22.7401 341.098 20.9134C340.385 19.0866 340.029 17.1122 340.029 14.9899C340.029 12.8677 340.385 10.8932 341.098 9.06649C341.824 7.23976 342.84 5.6548 344.146 4.31162C345.466 2.96843 347.05 1.91404 348.898 1.14842C350.745 0.382808 352.791 0 355.034 0C357.278 0 359.317 0.389523 361.151 1.16857C362.999 1.93418 364.576 2.98858 365.882 4.33177C367.189 5.67495 368.199 7.2599 368.911 9.08663C369.637 10.9134 370 12.8811 370 14.9899ZM363.151 14.9899C363.151 13.5393 362.966 12.2364 362.596 11.0813C362.227 9.91269 361.692 8.92546 360.993 8.11954C360.307 7.31363 359.462 6.69577 358.459 6.26595C357.456 5.83613 356.314 5.62122 355.034 5.62122C353.741 5.62122 352.586 5.83613 351.57 6.26595C350.567 6.69577 349.716 7.31363 349.016 8.11954C348.33 8.92546 347.802 9.91269 347.433 11.0813C347.063 12.2364 346.878 13.5393 346.878 14.9899C346.878 16.454 347.063 17.7703 347.433 18.9389C347.802 20.094 348.33 21.0745 349.016 21.8805C349.716 22.6864 350.567 23.3042 351.57 23.734C352.586 24.1504 353.741 24.3586 355.034 24.3586C356.314 24.3586 357.456 24.1504 358.459 23.734C359.462 23.3042 360.307 22.6864 360.993 21.8805C361.692 21.0745 362.227 20.094 362.596 18.9389C362.966 17.7703 363.151 16.454 363.151 14.9899Z" fill="#04F0FF"/>
<path d="M325.557 14.1236C326.467 14.1236 327.24 14.0094 327.873 13.7811C328.52 13.5393 329.048 13.2102 329.457 12.7938C329.866 12.3774 330.163 11.8939 330.347 11.3432C330.532 10.779 330.625 10.1746 330.625 9.52989C330.625 8.24043 330.209 7.23304 329.377 6.50772C328.559 5.7824 327.286 5.41974 325.557 5.41974H322.865V14.1236H325.557ZM339.77 29.6776H333.713C332.591 29.6776 331.786 29.2478 331.298 28.3882L326.507 19.8657C326.283 19.503 326.032 19.2411 325.755 19.0799C325.478 18.9053 325.082 18.818 324.567 18.818H322.865V29.6776H316.174V0.322365H325.557C327.642 0.322365 329.417 0.54399 330.882 0.98724C332.36 1.41706 333.561 2.02149 334.485 2.80054C335.422 3.57958 336.102 4.49966 336.524 5.56078C336.946 6.62189 337.157 7.77703 337.157 9.02619C337.157 9.97985 337.032 10.8798 336.781 11.726C336.53 12.5722 336.161 13.358 335.673 14.0833C335.184 14.7952 334.577 15.4332 333.851 15.9973C333.139 16.5615 332.314 17.0249 331.377 17.3875C331.812 17.6159 332.222 17.9046 332.604 18.2539C332.987 18.5897 333.33 18.9926 333.634 19.4627L339.77 29.6776Z" fill="#04F0FF"/>
<path d="M301.178 14.728C302.92 14.728 304.174 14.3049 304.94 13.4587C305.705 12.6125 306.088 11.4305 306.088 9.91269C306.088 9.2411 305.989 8.62995 305.791 8.07925C305.593 7.52854 305.289 7.05843 304.88 6.66891C304.484 6.26595 303.976 5.95702 303.356 5.74211C302.749 5.5272 302.023 5.41974 301.178 5.41974H297.694V14.728H301.178ZM301.178 0.322365C303.211 0.322365 304.953 0.570853 306.405 1.06783C307.869 1.55138 309.07 2.22297 310.007 3.08261C310.958 3.94224 311.657 4.95635 312.106 6.12492C312.555 7.29349 312.779 8.55608 312.779 9.91269C312.779 11.3768 312.548 12.7199 312.086 13.9422C311.624 15.1645 310.918 16.2122 309.968 17.0853C309.018 17.9584 307.81 18.6434 306.345 19.1404C304.893 19.6239 303.171 19.8657 301.178 19.8657H297.694V29.6776H291.003V0.322365H301.178Z" fill="#04F0FF"/>
<path d="M267.966 14.728C269.708 14.728 270.962 14.3049 271.727 13.4587C272.493 12.6125 272.876 11.4305 272.876 9.91269C272.876 9.2411 272.777 8.62995 272.579 8.07925C272.381 7.52854 272.077 7.05843 271.668 6.66891C271.272 6.26595 270.764 5.95702 270.144 5.74211C269.537 5.5272 268.811 5.41974 267.966 5.41974H264.482V14.728H267.966ZM267.966 0.322365C269.999 0.322365 271.741 0.570853 273.192 1.06783C274.657 1.55138 275.858 2.22297 276.795 3.08261C277.745 3.94224 278.445 4.95635 278.893 6.12492C279.342 7.29349 279.567 8.55608 279.567 9.91269C279.567 11.3768 279.336 12.7199 278.874 13.9422C278.412 15.1645 277.706 16.2122 276.756 17.0853C275.805 17.9584 274.598 18.6434 273.133 19.1404C271.681 19.6239 269.959 19.8657 267.966 19.8657H264.482V29.6776H257.791V0.322365H267.966Z" fill="#0469FF"/>
<path d="M253.853 14.9899C253.853 17.1122 253.49 19.0866 252.765 20.9134C252.052 22.7401 251.042 24.3318 249.736 25.6884C248.429 27.0316 246.852 28.086 245.005 28.8516C243.17 29.6172 241.131 30 238.888 30C236.644 30 234.599 29.6172 232.751 28.8516C230.903 28.086 229.32 27.0316 228 25.6884C226.693 24.3318 225.677 22.7401 224.951 20.9134C224.239 19.0866 223.882 17.1122 223.882 14.9899C223.882 12.8677 224.239 10.8932 224.951 9.06649C225.677 7.23976 226.693 5.6548 228 4.31162C229.32 2.96843 230.903 1.91404 232.751 1.14842C234.599 0.382808 236.644 0 238.888 0C241.131 0 243.17 0.389523 245.005 1.16857C246.852 1.93418 248.429 2.98858 249.736 4.33177C251.042 5.67495 252.052 7.2599 252.765 9.08663C253.49 10.9134 253.853 12.8811 253.853 14.9899ZM247.004 14.9899C247.004 13.5393 246.819 12.2364 246.45 11.0813C246.08 9.91269 245.546 8.92546 244.846 8.11954C244.16 7.31363 243.315 6.69577 242.312 6.26595C241.309 5.83613 240.168 5.62122 238.888 5.62122C237.594 5.62122 236.44 5.83613 235.423 6.26595C234.42 6.69577 233.569 7.31363 232.87 8.11954C232.183 8.92546 231.656 9.91269 231.286 11.0813C230.916 12.2364 230.732 13.5393 230.732 14.9899C230.732 16.454 230.916 17.7703 231.286 18.9389C231.656 20.094 232.183 21.0745 232.87 21.8805C233.569 22.6864 234.42 23.3042 235.423 23.734C236.44 24.1504 237.594 24.3586 238.888 24.3586C240.168 24.3586 241.309 24.1504 242.312 23.734C243.315 23.3042 244.16 22.6864 244.846 21.8805C245.546 21.0745 246.08 20.094 246.45 18.9389C246.819 17.7703 247.004 16.454 247.004 14.9899Z" fill="#0469FF"/>
<path d="M219.949 0.322365V29.6776H213.219V17.2666H201.499V29.6776H194.769V0.322365H201.499V12.5923H213.219V0.322365H219.949Z" fill="#0469FF"/>
<path d="M188.782 6.2861C188.584 6.60846 188.373 6.85023 188.148 7.01142C187.937 7.1726 187.66 7.25319 187.317 7.25319C187.013 7.25319 186.684 7.15917 186.327 6.97112C185.984 6.76964 185.588 6.54802 185.139 6.30624C184.704 6.06447 184.202 5.84956 183.635 5.66152C183.068 5.46004 182.421 5.3593 181.695 5.3593C180.441 5.3593 179.504 5.63465 178.884 6.18536C178.277 6.72263 177.973 7.45467 177.973 8.38146C177.973 8.97247 178.158 9.46273 178.528 9.85225C178.897 10.2418 179.379 10.5776 179.973 10.8596C180.58 11.1417 181.266 11.4036 182.032 11.6454C182.81 11.8737 183.602 12.1357 184.407 12.4312C185.212 12.7132 185.997 13.049 186.763 13.4385C187.541 13.8281 188.228 14.3251 188.822 14.9295C189.429 15.5339 189.917 16.2727 190.286 17.1457C190.656 18.0054 190.841 19.0463 190.841 20.2686C190.841 21.6253 190.61 22.8946 190.148 24.0766C189.686 25.2586 189.013 26.2928 188.129 27.1793C187.258 28.0524 186.175 28.7441 184.882 29.2545C183.602 29.7515 182.144 30 180.507 30C179.61 30 178.693 29.906 177.756 29.7179C176.832 29.5299 175.934 29.268 175.063 28.9322C174.192 28.5829 173.374 28.1733 172.609 27.7032C171.843 27.233 171.177 26.7092 170.609 26.1316L172.589 22.9483C172.747 22.7199 172.952 22.5319 173.203 22.3842C173.466 22.223 173.75 22.1424 174.054 22.1424C174.45 22.1424 174.846 22.27 175.242 22.5252C175.651 22.7804 176.106 23.0625 176.607 23.3714C177.122 23.6803 177.709 23.9624 178.369 24.2176C179.029 24.4728 179.808 24.6004 180.705 24.6004C181.919 24.6004 182.863 24.3318 183.536 23.7945C184.209 23.2438 184.546 22.3774 184.546 21.1954C184.546 20.5104 184.361 19.953 183.991 19.5232C183.622 19.0934 183.133 18.7374 182.526 18.4553C181.933 18.1733 181.253 17.9248 180.487 17.7099C179.722 17.495 178.937 17.2599 178.132 17.0047C177.327 16.7361 176.541 16.4137 175.776 16.0376C175.011 15.6481 174.324 15.1444 173.717 14.5265C173.123 13.8952 172.642 13.1162 172.272 12.1894C171.903 11.2492 171.718 10.094 171.718 8.72397C171.718 7.62256 171.936 6.54802 172.371 5.50034C172.807 4.45265 173.447 3.51914 174.291 2.6998C175.136 1.88046 176.172 1.22901 177.399 0.745466C178.627 0.248489 180.032 0 181.616 0C182.5 0 183.358 0.0738753 184.189 0.221626C185.034 0.355944 185.832 0.564137 186.585 0.846204C187.337 1.11484 188.036 1.44392 188.683 1.83344C189.343 2.20954 189.93 2.63935 190.445 3.1229L188.782 6.2861Z" fill="#0469FF"/>
<path d="M167.265 0.322365V29.6776H161.366V12.7938C161.366 12.4043 161.373 11.9812 161.386 11.5245C161.412 11.0678 161.452 10.6044 161.505 10.1343L153.844 25.225C153.606 25.6951 153.283 26.051 152.874 26.2928C152.478 26.5346 152.022 26.6555 151.508 26.6555H150.597C150.082 26.6555 149.62 26.5346 149.211 26.2928C148.815 26.051 148.499 25.6951 148.261 25.225L140.6 10.094C140.64 10.5776 140.673 11.0544 140.699 11.5245C140.725 11.9812 140.739 12.4043 140.739 12.7938V29.6776H134.839V0.322365H139.947C140.237 0.322365 140.488 0.32908 140.699 0.342511C140.923 0.355944 141.121 0.396239 141.293 0.463398C141.465 0.530558 141.616 0.638012 141.748 0.785763C141.893 0.920081 142.032 1.11484 142.164 1.37005L149.587 16.2592C149.851 16.7696 150.102 17.3002 150.34 17.8509C150.59 18.4016 150.828 18.9658 151.052 19.5433C151.277 18.9523 151.508 18.3747 151.745 17.8106C151.996 17.2465 152.26 16.7092 152.537 16.1988L159.941 1.37005C160.073 1.11484 160.205 0.920081 160.337 0.785763C160.482 0.638012 160.64 0.530558 160.812 0.463398C160.983 0.396239 161.175 0.355944 161.386 0.342511C161.61 0.32908 161.868 0.322365 162.158 0.322365H167.265Z" fill="#191919"/>
<path d="M130.902 14.9899C130.902 17.1122 130.539 19.0866 129.813 20.9134C129.101 22.7401 128.091 24.3318 126.784 25.6884C125.478 27.0316 123.901 28.086 122.053 28.8516C120.219 29.6172 118.18 30 115.936 30C113.693 30 111.647 29.6172 109.799 28.8516C107.952 28.086 106.368 27.0316 105.048 25.6884C103.742 24.3318 102.726 22.7401 102 20.9134C101.287 19.0866 100.931 17.1122 100.931 14.9899C100.931 12.8677 101.287 10.8932 102 9.06649C102.726 7.23976 103.742 5.6548 105.048 4.31162C106.368 2.96843 107.952 1.91404 109.799 1.14842C111.647 0.382808 113.693 0 115.936 0C118.18 0 120.219 0.389523 122.053 1.16857C123.901 1.93418 125.478 2.98858 126.784 4.33177C128.091 5.67495 129.101 7.2599 129.813 9.08663C130.539 10.9134 130.902 12.8811 130.902 14.9899ZM124.053 14.9899C124.053 13.5393 123.868 12.2364 123.498 11.0813C123.129 9.91269 122.594 8.92546 121.895 8.11954C121.209 7.31363 120.364 6.69577 119.361 6.26595C118.358 5.83613 117.216 5.62122 115.936 5.62122C114.643 5.62122 113.488 5.83613 112.472 6.26595C111.469 6.69577 110.618 7.31363 109.918 8.11954C109.232 8.92546 108.704 9.91269 108.335 11.0813C107.965 12.2364 107.78 13.5393 107.78 14.9899C107.78 16.454 107.965 17.7703 108.335 18.9389C108.704 20.094 109.232 21.0745 109.918 21.8805C110.618 22.6864 111.469 23.3042 112.472 23.734C113.488 24.1504 114.643 24.3586 115.936 24.3586C117.216 24.3586 118.358 24.1504 119.361 23.734C120.364 23.3042 121.209 22.6864 121.895 21.8805C122.594 21.0745 123.129 20.094 123.498 18.9389C123.868 17.7703 124.053 16.454 124.053 14.9899Z" fill="#191919"/>
<path d="M99.8511 5.72196H91.7347V29.6776H85.0437V5.72196H76.9274V0.322365H99.8511V5.72196Z" fill="#191919"/>
<path d="M73.138 6.2861C72.9401 6.60846 72.7289 6.85023 72.5046 7.01142C72.2934 7.1726 72.0163 7.25319 71.6731 7.25319C71.3696 7.25319 71.0396 7.15917 70.6833 6.97112C70.3402 6.76964 69.9443 6.54802 69.4956 6.30624C69.0601 6.06447 68.5586 5.84956 67.9911 5.66152C67.4236 5.46004 66.7769 5.3593 66.0511 5.3593C64.7973 5.3593 63.8603 5.63465 63.24 6.18536C62.633 6.72263 62.3294 7.45467 62.3294 8.38146C62.3294 8.97247 62.5142 9.46273 62.8837 9.85225C63.2532 10.2418 63.7349 10.5776 64.3288 10.8596C64.9359 11.1417 65.6222 11.4036 66.3876 11.6454C67.1662 11.8737 67.9581 12.1357 68.7631 12.4312C69.5682 12.7132 70.3534 13.049 71.1188 13.4385C71.8975 13.8281 72.5837 14.3251 73.1776 14.9295C73.7847 15.5339 74.273 16.2727 74.6425 17.1457C75.012 18.0054 75.1968 19.0463 75.1968 20.2686C75.1968 21.6253 74.9659 22.8946 74.5039 24.0766C74.042 25.2586 73.369 26.2928 72.4848 27.1793C71.6137 28.0524 70.5316 28.7441 69.2382 29.2545C67.9581 29.7515 66.4998 30 64.8633 30C63.9659 30 63.0487 29.906 62.1117 29.7179C61.1879 29.5299 60.2904 29.268 59.4194 28.9322C58.5484 28.5829 57.7302 28.1733 56.9647 27.7032C56.1993 27.233 55.5328 26.7092 54.9653 26.1316L56.9449 22.9483C57.1033 22.7199 57.3079 22.5319 57.5586 22.3842C57.8226 22.223 58.1063 22.1424 58.4098 22.1424C58.8058 22.1424 59.2017 22.27 59.5976 22.5252C60.0067 22.7804 60.462 23.0625 60.9635 23.3714C61.4782 23.6803 62.0655 23.9624 62.7254 24.2176C63.3852 24.4728 64.1639 24.6004 65.0613 24.6004C66.2754 24.6004 67.219 24.3318 67.8921 23.7945C68.5652 23.2438 68.9017 22.3774 68.9017 21.1954C68.9017 20.5104 68.7169 19.953 68.3474 19.5232C67.9779 19.0934 67.4896 18.7374 66.8825 18.4553C66.2886 18.1733 65.609 17.9248 64.8435 17.7099C64.0781 17.495 63.2928 17.2599 62.4878 17.0047C61.6828 16.7361 60.8975 16.4137 60.1321 16.0376C59.3666 15.6481 58.6804 15.1444 58.0733 14.5265C57.4794 13.8952 56.9977 13.1162 56.6282 12.1894C56.2587 11.2492 56.0739 10.094 56.0739 8.72397C56.0739 7.62256 56.2917 6.54802 56.7272 5.50034C57.1627 4.45265 57.8028 3.51914 58.6474 2.6998C59.492 1.88046 60.528 1.22901 61.7553 0.745466C62.9827 0.248489 64.3882 0 65.9719 0C66.8561 0 67.7139 0.0738753 68.5454 0.221626C69.39 0.355944 70.1884 0.564137 70.9407 0.846204C71.6929 1.11484 72.3924 1.44392 73.039 1.83344C73.6989 2.20954 74.2862 2.63935 74.8009 3.1229L73.138 6.2861Z" fill="#191919"/>
<path d="M39.5829 24.2982C40.4804 24.2982 41.2788 24.1504 41.9783 23.8549C42.6909 23.546 43.2914 23.1095 43.7797 22.5453C44.268 21.9812 44.6375 21.2962 44.8883 20.4903C45.1522 19.6709 45.2842 18.7441 45.2842 17.7099V0.322365H51.9752V17.7099C51.9752 19.5097 51.6849 21.1619 51.1042 22.6662C50.5367 24.1706 49.7185 25.4668 48.6495 26.5547C47.5805 27.6427 46.2806 28.4889 44.7497 29.0934C43.2188 29.6978 41.4966 30 39.5829 30C37.6561 30 35.9273 29.6978 34.3964 29.0934C32.8655 28.4889 31.5656 27.6427 30.4966 26.5547C29.4276 25.4668 28.6094 24.1706 28.0419 22.6662C27.4744 21.1619 27.1907 19.5097 27.1907 17.7099V0.322365H33.8817V17.6897C33.8817 18.724 34.0071 19.6508 34.2578 20.4701C34.5218 21.276 34.8979 21.9678 35.3862 22.5453C35.8745 23.1095 36.4684 23.546 37.1678 23.8549C37.8805 24.1504 38.6855 24.2982 39.5829 24.2982Z" fill="#191919"/>
<path d="M21.0431 22.0819C21.2015 22.0819 21.3598 22.1155 21.5182 22.1827C21.6766 22.2364 21.8283 22.3371 21.9735 22.4849L24.6262 25.3257C23.4648 26.8704 22.0065 28.039 20.2513 28.8314C18.5092 29.6105 16.4438 30 14.0551 30C11.8644 30 9.89798 29.6239 8.15593 28.8717C6.42709 28.1061 4.95559 27.0584 3.74144 25.7287C2.54048 24.3855 1.61667 22.8005 0.970002 20.9738C0.323334 19.1336 0 17.139 0 14.9899C0 12.8005 0.349729 10.7925 1.04919 8.96575C1.74864 7.12559 2.73184 5.54063 3.99878 4.21088C5.26572 2.88113 6.78341 1.84688 8.55185 1.10813C10.3203 0.369375 12.2669 0 14.3917 0C15.4738 0 16.49 0.100739 17.4402 0.302216C18.4036 0.490261 19.3011 0.758897 20.1325 1.10813C20.9639 1.44392 21.7294 1.85359 22.4288 2.33714C23.1283 2.82068 23.7485 3.34453 24.2896 3.90866L22.0329 6.99127C21.8877 7.17931 21.7162 7.35393 21.5182 7.51511C21.3202 7.66286 21.0431 7.73674 20.6868 7.73674C20.4492 7.73674 20.2249 7.68301 20.0137 7.57556C19.8026 7.4681 19.5782 7.3405 19.3406 7.19275C19.1031 7.03157 18.8392 6.86367 18.5488 6.68905C18.2717 6.50101 17.9351 6.33311 17.5392 6.18536C17.1565 6.02418 16.7012 5.88986 16.1733 5.7824C15.6586 5.67495 15.0515 5.62122 14.3521 5.62122C13.2435 5.62122 12.2273 5.82942 11.3035 6.2458C10.3929 6.66219 9.60104 7.27334 8.92798 8.07925C8.26811 8.87173 7.75342 9.85225 7.38389 11.0208C7.02756 12.176 6.8494 13.499 6.8494 14.9899C6.8494 16.4943 7.04736 17.8308 7.44328 18.9993C7.8524 20.1679 8.40008 21.1551 9.08634 21.961C9.7858 22.7535 10.5974 23.358 11.5212 23.7743C12.4451 24.1907 13.4349 24.3989 14.4906 24.3989C15.0977 24.3989 15.652 24.3721 16.1535 24.3183C16.655 24.2512 17.1235 24.1504 17.559 24.0161C17.9945 23.8684 18.4036 23.6803 18.7864 23.452C19.1691 23.2102 19.5584 22.908 19.9543 22.5453C20.1127 22.411 20.2843 22.3036 20.469 22.223C20.6538 22.1289 20.8451 22.0819 21.0431 22.0819Z" fill="#191919"/>
</svg>
