<svg width="126" height="10" viewBox="0 0 126 10" fill="none" xmlns="http://www.w3.org/2000/svg">
<path d="M126 4.99664C126 5.70405 125.876 6.36221 125.629 6.97112C125.386 7.58003 125.043 8.11059 124.598 8.56279C124.153 9.01052 123.616 9.36199 122.987 9.61719C122.362 9.8724 121.668 10 120.904 10C120.139 10 119.443 9.8724 118.814 9.61719C118.184 9.36199 117.645 9.01052 117.196 8.56279C116.751 8.11059 116.405 7.58003 116.158 6.97112C115.915 6.36221 115.794 5.70405 115.794 4.99664C115.794 4.28923 115.915 3.63107 116.158 3.02216C116.405 2.41325 116.751 1.88493 117.196 1.43721C117.645 0.989478 118.184 0.638012 118.814 0.382808C119.443 0.127603 120.139 0 120.904 0C121.668 0 122.362 0.129841 122.987 0.389523C123.616 0.644728 124.153 0.996194 124.598 1.44392C125.043 1.89165 125.386 2.41997 125.629 3.02888C125.876 3.63779 126 4.29371 126 4.99664ZM123.667 4.99664C123.667 4.5131 123.605 4.0788 123.479 3.69375C123.353 3.30423 123.171 2.97515 122.933 2.70651C122.699 2.43788 122.411 2.23192 122.07 2.08865C121.728 1.94538 121.339 1.87374 120.904 1.87374C120.463 1.87374 120.07 1.94538 119.724 2.08865C119.382 2.23192 119.092 2.43788 118.854 2.70651C118.62 2.97515 118.441 3.30423 118.315 3.69375C118.189 4.0788 118.126 4.5131 118.126 4.99664C118.126 5.48467 118.189 5.92344 118.315 6.31296C118.441 6.69801 118.62 7.02485 118.854 7.29349C119.092 7.56212 119.382 7.76808 119.724 7.91135C120.07 8.05015 120.463 8.11954 120.904 8.11954C121.339 8.11954 121.728 8.05015 122.07 7.91135C122.411 7.76808 122.699 7.56212 122.933 7.29349C123.171 7.02485 123.353 6.69801 123.479 6.31296C123.605 5.92344 123.667 5.48467 123.667 4.99664Z" fill="#04F0FF"/>
<path d="M110.865 4.70789C111.175 4.70789 111.438 4.66983 111.654 4.59372C111.874 4.51312 112.054 4.40343 112.193 4.26464C112.333 4.12584 112.434 3.96466 112.497 3.78109C112.56 3.59304 112.591 3.39157 112.591 3.17666C112.591 2.74684 112.45 2.41104 112.166 2.16927C111.888 1.9275 111.454 1.80661 110.865 1.80661H109.948V4.70789H110.865ZM115.706 9.89257H113.643C113.261 9.89257 112.987 9.7493 112.82 9.46275L111.189 6.62192C111.112 6.50104 111.027 6.41373 110.933 6.36C110.838 6.3018 110.704 6.27269 110.528 6.27269H109.948V9.89257H107.67V0.107483H110.865C111.575 0.107483 112.18 0.181358 112.679 0.329108C113.182 0.472381 113.591 0.673858 113.906 0.93354C114.225 1.19322 114.456 1.49992 114.6 1.85362C114.744 2.20733 114.816 2.59237 114.816 3.00876C114.816 3.32665 114.773 3.62662 114.688 3.90869C114.602 4.19076 114.476 4.45268 114.31 4.69445C114.144 4.93175 113.937 5.14442 113.69 5.33247C113.447 5.52051 113.166 5.67498 112.847 5.79586C112.996 5.87198 113.135 5.96824 113.265 6.08465C113.396 6.19658 113.512 6.3309 113.616 6.4876L115.706 9.89257Z" fill="#04F0FF"/>
<path d="M102.563 4.90936C103.157 4.90936 103.584 4.76833 103.844 4.48626C104.105 4.20419 104.235 3.81019 104.235 3.30426C104.235 3.08039 104.202 2.87668 104.134 2.69311C104.067 2.50954 103.963 2.35284 103.824 2.223C103.689 2.08868 103.516 1.9857 103.305 1.91406C103.098 1.84243 102.851 1.80661 102.563 1.80661H101.377V4.90936H102.563ZM102.563 0.107483C103.256 0.107483 103.849 0.190312 104.343 0.355971C104.842 0.517154 105.251 0.741018 105.57 1.02756C105.894 1.31411 106.132 1.65214 106.285 2.04167C106.437 2.43119 106.514 2.85205 106.514 3.30426C106.514 3.79228 106.435 4.24001 106.278 4.64744C106.121 5.05487 105.88 5.4041 105.557 5.69513C105.233 5.98615 104.822 6.21449 104.323 6.38015C103.829 6.54133 103.242 6.62192 102.563 6.62192H101.377V9.89257H99.0984V0.107483H102.563Z" fill="#04F0FF"/>
<path d="M91.2534 4.90936C91.8466 4.90936 92.2736 4.76833 92.5342 4.48626C92.7949 4.20419 92.9252 3.81019 92.9252 3.30426C92.9252 3.08039 92.8915 2.87668 92.8241 2.69311C92.7567 2.50954 92.6533 2.35284 92.514 2.223C92.3792 2.08868 92.2062 1.9857 91.9949 1.91406C91.7882 1.84243 91.541 1.80661 91.2534 1.80661H90.0669V4.90936H91.2534ZM91.2534 0.107483C91.9455 0.107483 92.5387 0.190312 93.0331 0.355971C93.5319 0.517154 93.9409 0.741018 94.26 1.02756C94.5836 1.31411 94.8218 1.65214 94.9746 2.04167C95.1274 2.43119 95.2038 2.85205 95.2038 3.30426C95.2038 3.79228 95.1251 4.24001 94.9678 4.64744C94.8105 5.05487 94.5701 5.4041 94.2465 5.69513C93.9229 5.98615 93.5117 6.21449 93.0129 6.38015C92.5185 6.54133 91.932 6.62192 91.2534 6.62192H90.0669V9.89257H87.7883V0.107483H91.2534Z" fill="#0469FF"/>
<path d="M86.4473 4.99664C86.4473 5.70405 86.3237 6.36221 86.0766 6.97112C85.8339 7.58003 85.4901 8.11059 85.0451 8.56279C84.6002 9.01052 84.0631 9.36199 83.434 9.61719C82.8093 9.8724 82.1149 10 81.3509 10C80.5869 10 79.8903 9.8724 79.2611 9.61719C78.6319 9.36199 78.0926 9.01052 77.6432 8.56279C77.1982 8.11059 76.8522 7.58003 76.605 6.97112C76.3623 6.36221 76.241 5.70405 76.241 4.99664C76.241 4.28923 76.3623 3.63107 76.605 3.02216C76.8522 2.41325 77.1982 1.88493 77.6432 1.43721C78.0926 0.989478 78.6319 0.638012 79.2611 0.382808C79.8903 0.127603 80.5869 0 81.3509 0C82.1149 0 82.8093 0.129841 83.434 0.389523C84.0631 0.644728 84.6002 0.996194 85.0451 1.44392C85.4901 1.89165 85.8339 2.41997 86.0766 3.02888C86.3237 3.63779 86.4473 4.29371 86.4473 4.99664ZM84.1148 4.99664C84.1148 4.5131 84.0519 4.0788 83.9261 3.69375C83.8002 3.30423 83.6182 2.97515 83.38 2.70651C83.1463 2.43788 82.8587 2.23192 82.5171 2.08865C82.1756 1.94538 81.7868 1.87374 81.3509 1.87374C80.9105 1.87374 80.5172 1.94538 80.1712 2.08865C79.8296 2.23192 79.5397 2.43788 79.3015 2.70651C79.0678 2.97515 78.8881 3.30423 78.7622 3.69375C78.6364 4.0788 78.5735 4.5131 78.5735 4.99664C78.5735 5.48467 78.6364 5.92344 78.7622 6.31296C78.8881 6.69801 79.0678 7.02485 79.3015 7.29349C79.5397 7.56212 79.8296 7.76808 80.1712 7.91135C80.5172 8.05015 80.9105 8.11954 81.3509 8.11954C81.7868 8.11954 82.1756 8.05015 82.5171 7.91135C82.8587 7.76808 83.1463 7.56212 83.38 7.29349C83.6182 7.02485 83.8002 6.69801 83.9261 6.31296C84.0519 5.92344 84.1148 5.48467 84.1148 4.99664Z" fill="#0469FF"/>
<path d="M74.9016 0.107483V9.89257H72.6096V5.75557H68.6187V9.89257H66.3267V0.107483H68.6187V4.19748H72.6096V0.107483H74.9016Z" fill="#0469FF"/>
<path d="M64.2879 2.09537C64.2205 2.20282 64.1486 2.28341 64.0722 2.33714C64.0003 2.39087 63.9059 2.41773 63.789 2.41773C63.6857 2.41773 63.5733 2.38639 63.452 2.32371C63.3351 2.25655 63.2003 2.18267 63.0475 2.10208C62.8992 2.02149 62.7284 1.94985 62.5352 1.88717C62.3419 1.82001 62.1217 1.78643 61.8745 1.78643C61.4476 1.78643 61.1285 1.87822 60.9172 2.06179C60.7105 2.24088 60.6071 2.48489 60.6071 2.79382C60.6071 2.99082 60.6701 3.15424 60.7959 3.28408C60.9217 3.41392 61.0858 3.52586 61.288 3.61988C61.4947 3.7139 61.7284 3.80121 61.9891 3.8818C62.2543 3.95791 62.5239 4.04522 62.7981 4.14372C63.0722 4.23774 63.3396 4.34968 63.6003 4.47952C63.8654 4.60936 64.0991 4.77502 64.3014 4.97649C64.5081 5.17797 64.6744 5.42422 64.8002 5.71524C64.9261 6.00179 64.989 6.34878 64.989 6.75621C64.989 7.20842 64.9104 7.63152 64.7531 8.02552C64.5958 8.41952 64.3666 8.76427 64.0654 9.05977C63.7688 9.35079 63.4003 9.58137 62.9599 9.75151C62.5239 9.91717 62.0273 10 61.47 10C61.1644 10 60.8521 9.96866 60.533 9.90598C60.2184 9.8433 59.9128 9.75599 59.6162 9.64406C59.3195 9.52765 59.0409 9.39109 58.7802 9.23439C58.5196 9.07768 58.2926 8.90307 58.0994 8.71054L58.7735 7.64943C58.8274 7.57332 58.8971 7.51063 58.9825 7.46138C59.0724 7.40766 59.169 7.38079 59.2724 7.38079C59.4072 7.38079 59.542 7.42333 59.6768 7.5084C59.8162 7.59346 59.9712 7.68749 60.142 7.79046C60.3173 7.89344 60.5173 7.98746 60.742 8.07253C60.9667 8.1576 61.2318 8.20013 61.5374 8.20013C61.9509 8.20013 62.2722 8.11059 62.5015 7.9315C62.7307 7.74793 62.8453 7.45915 62.8453 7.06514C62.8453 6.8368 62.7823 6.651 62.6565 6.50772C62.5307 6.36445 62.3644 6.2458 62.1576 6.15178C61.9554 6.05776 61.724 5.97493 61.4633 5.90329C61.2026 5.83165 60.9352 5.7533 60.6611 5.66823C60.3869 5.57869 60.1195 5.47123 59.8589 5.34587C59.5982 5.21603 59.3645 5.04813 59.1578 4.84218C58.9555 4.63174 58.7915 4.37206 58.6656 4.06313C58.5398 3.74972 58.4769 3.36467 58.4769 2.90799C58.4769 2.54085 58.551 2.18267 58.6993 1.83345C58.8477 1.48422 59.0656 1.17305 59.3533 0.899932C59.6409 0.626819 59.9937 0.409671 60.4116 0.248489C60.8296 0.0828295 61.3082 0 61.8475 0C62.1487 0 62.4408 0.0246251 62.7239 0.0738753C63.0115 0.118648 63.2834 0.188046 63.5396 0.282068C63.7958 0.371614 64.034 0.481307 64.2542 0.611148C64.4789 0.736512 64.6789 0.879785 64.8542 1.04097L64.2879 2.09537Z" fill="#0469FF"/>
<path d="M56.9606 0.107483V9.89257H54.9517V4.26464C54.9517 4.13479 54.954 3.99376 54.9585 3.84153C54.9674 3.6893 54.9809 3.53484 54.9989 3.37813L52.39 8.40836C52.3091 8.56506 52.199 8.68371 52.0597 8.7643C51.9249 8.84489 51.7698 8.88519 51.5945 8.88519H51.2844C51.1092 8.88519 50.9519 8.84489 50.8125 8.7643C50.6777 8.68371 50.5698 8.56506 50.489 8.40836L47.8801 3.3647C47.8935 3.52588 47.9048 3.68483 47.9138 3.84153C47.9228 3.99376 47.9272 4.13479 47.9272 4.26464V9.89257H45.9183V0.107483H47.6576C47.7565 0.107483 47.8419 0.109721 47.9138 0.114198C47.9902 0.118676 48.0576 0.132108 48.116 0.154494C48.1744 0.17688 48.2261 0.212699 48.2711 0.261949C48.3205 0.306722 48.3677 0.371642 48.4126 0.45671L50.9406 5.41977C51.0305 5.58991 51.1159 5.76676 51.1968 5.95033C51.2822 6.1339 51.3631 6.32195 51.4395 6.51447C51.5159 6.31747 51.5945 6.12494 51.6754 5.9369C51.7608 5.74885 51.8507 5.56976 51.9451 5.39963L54.4663 0.45671C54.5113 0.371642 54.5562 0.306722 54.6012 0.261949C54.6506 0.212699 54.7045 0.17688 54.763 0.154494C54.8214 0.132108 54.8865 0.118676 54.9585 0.114198C55.0349 0.109721 55.1225 0.107483 55.2214 0.107483H56.9606Z" fill="white"/>
<path d="M44.5775 4.99664C44.5775 5.70405 44.4539 6.36221 44.2067 6.97112C43.964 7.58003 43.6202 8.11059 43.1753 8.56279C42.7303 9.01052 42.1933 9.36199 41.5641 9.61719C40.9394 9.8724 40.245 10 39.481 10C38.717 10 38.0204 9.8724 37.3912 9.61719C36.762 9.36199 36.2227 9.01052 35.7733 8.56279C35.3284 8.11059 34.9823 7.58003 34.7351 6.97112C34.4924 6.36221 34.3711 5.70405 34.3711 4.99664C34.3711 4.28923 34.4924 3.63107 34.7351 3.02216C34.9823 2.41325 35.3284 1.88493 35.7733 1.43721C36.2227 0.989478 36.762 0.638012 37.3912 0.382808C38.0204 0.127603 38.717 0 39.481 0C40.245 0 40.9394 0.129841 41.5641 0.389523C42.1933 0.644728 42.7303 0.996194 43.1753 1.44392C43.6202 1.89165 43.964 2.41997 44.2067 3.02888C44.4539 3.63779 44.5775 4.29371 44.5775 4.99664ZM42.245 4.99664C42.245 4.5131 42.182 4.0788 42.0562 3.69375C41.9304 3.30423 41.7483 2.97515 41.5102 2.70651C41.2765 2.43788 40.9888 2.23192 40.6473 2.08865C40.3057 1.94538 39.917 1.87374 39.481 1.87374C39.0406 1.87374 38.6473 1.94538 38.3013 2.08865C37.9597 2.23192 37.6698 2.43788 37.4317 2.70651C37.198 2.97515 37.0182 3.30423 36.8923 3.69375C36.7665 4.0788 36.7036 4.5131 36.7036 4.99664C36.7036 5.48467 36.7665 5.92344 36.8923 6.31296C37.0182 6.69801 37.198 7.02485 37.4317 7.29349C37.6698 7.56212 37.9597 7.76808 38.3013 7.91135C38.6473 8.05015 39.0406 8.11954 39.481 8.11954C39.917 8.11954 40.3057 8.05015 40.6473 7.91135C40.9888 7.76808 41.2765 7.56212 41.5102 7.29349C41.7483 7.02485 41.9304 6.69801 42.0562 6.31296C42.182 5.92344 42.245 5.48467 42.245 4.99664Z" fill="white"/>
<path d="M34.0034 1.90735H31.2394V9.89257H28.9608V1.90735H26.1969V0.107483H34.0034V1.90735Z" fill="white"/>
<path d="M24.9064 2.09537C24.839 2.20282 24.7671 2.28341 24.6907 2.33714C24.6188 2.39087 24.5244 2.41773 24.4076 2.41773C24.3042 2.41773 24.1919 2.38639 24.0705 2.32371C23.9537 2.25655 23.8188 2.18267 23.666 2.10208C23.5177 2.02149 23.3469 1.94985 23.1537 1.88717C22.9604 1.82001 22.7402 1.78643 22.493 1.78643C22.0661 1.78643 21.747 1.87822 21.5358 2.06179C21.329 2.24088 21.2257 2.48489 21.2257 2.79382C21.2257 2.99082 21.2886 3.15424 21.4144 3.28408C21.5403 3.41392 21.7043 3.52586 21.9065 3.61988C22.1133 3.7139 22.347 3.80121 22.6076 3.8818C22.8728 3.95791 23.1425 4.04522 23.4166 4.14372C23.6907 4.23774 23.9582 4.34968 24.2188 4.47952C24.484 4.60936 24.7177 4.77502 24.9199 4.97649C25.1266 5.17797 25.2929 5.42422 25.4188 5.71524C25.5446 6.00179 25.6075 6.34878 25.6075 6.75621C25.6075 7.20842 25.5289 7.63152 25.3716 8.02552C25.2143 8.41952 24.9851 8.76427 24.684 9.05977C24.3874 9.35079 24.0188 9.58137 23.5784 9.75151C23.1425 9.91717 22.6458 10 22.0886 10C21.783 10 21.4706 9.96866 21.1515 9.90598C20.8369 9.8433 20.5313 9.75599 20.2347 9.64406C19.9381 9.52765 19.6594 9.39109 19.3988 9.23439C19.1381 9.07768 18.9111 8.90307 18.7179 8.71054L19.392 7.64943C19.446 7.57332 19.5156 7.51063 19.601 7.46138C19.6909 7.40766 19.7875 7.38079 19.8909 7.38079C20.0257 7.38079 20.1605 7.42333 20.2954 7.5084C20.4347 7.59346 20.5897 7.68749 20.7605 7.79046C20.9358 7.89344 21.1358 7.98746 21.3605 8.07253C21.5852 8.1576 21.8504 8.20013 22.156 8.20013C22.5694 8.20013 22.8908 8.11059 23.12 7.9315C23.3492 7.74793 23.4638 7.45915 23.4638 7.06514C23.4638 6.8368 23.4009 6.651 23.275 6.50772C23.1492 6.36445 22.9829 6.2458 22.7762 6.15178C22.5739 6.05776 22.3425 5.97493 22.0818 5.90329C21.8212 5.83165 21.5537 5.7533 21.2796 5.66823C21.0055 5.57869 20.738 5.47123 20.4774 5.34587C20.2167 5.21603 19.983 5.04813 19.7763 4.84218C19.574 4.63174 19.41 4.37206 19.2842 4.06313C19.1583 3.74972 19.0954 3.36467 19.0954 2.90799C19.0954 2.54085 19.1696 2.18267 19.3179 1.83345C19.4662 1.48422 19.6842 1.17305 19.9718 0.899932C20.2594 0.626819 20.6122 0.409671 21.0302 0.248489C21.4481 0.0828295 21.9268 0 22.4661 0C22.7672 0 23.0593 0.0246251 23.3424 0.0738753C23.6301 0.118648 23.902 0.188046 24.1581 0.282068C24.4143 0.371614 24.6525 0.481307 24.8727 0.611148C25.0974 0.736512 25.2974 0.879785 25.4727 1.04097L24.9064 2.09537Z" fill="white"/>
<path d="M13.4796 8.09942C13.7852 8.09942 14.0571 8.05017 14.2953 7.95167C14.538 7.8487 14.7425 7.70318 14.9088 7.51514C15.075 7.32709 15.2009 7.09875 15.2863 6.83011C15.3762 6.557 15.4211 6.24807 15.4211 5.90332V0.107483H17.6997V5.90332C17.6997 6.50327 17.6008 7.05398 17.403 7.55543C17.2098 8.05689 16.9311 8.48895 16.5671 8.85161C16.2031 9.21426 15.7604 9.49633 15.2391 9.69781C14.7177 9.89929 14.1313 10 13.4796 10C12.8234 10 12.2347 9.89929 11.7134 9.69781C11.192 9.49633 10.7494 9.21426 10.3853 8.85161C10.0213 8.48895 9.74265 8.05689 9.5494 7.55543C9.35615 7.05398 9.25952 6.50327 9.25952 5.90332V0.107483H11.5381V5.8966C11.5381 6.24135 11.5808 6.55028 11.6662 6.8234C11.7561 7.09203 11.8841 7.32262 12.0504 7.51514C12.2167 7.70318 12.419 7.8487 12.6571 7.95167C12.8998 8.05017 13.174 8.09942 13.4796 8.09942Z" fill="white"/>
<path d="M7.16603 7.36064C7.21996 7.36064 7.27389 7.37184 7.32782 7.39422C7.38175 7.41213 7.43343 7.44571 7.48287 7.49496L8.38621 8.44191C7.99072 8.95679 7.49411 9.34632 6.89638 9.61048C6.30314 9.87016 5.59979 10 4.78634 10C4.0403 10 3.37066 9.87464 2.77743 9.62391C2.18868 9.3687 1.68758 9.01948 1.27411 8.57623C0.865137 8.1285 0.550542 7.60018 0.330325 6.99127C0.110108 6.37788 0 5.71301 0 4.99664C0 4.26685 0.119097 3.59749 0.35729 2.98858C0.595484 2.3752 0.930303 1.84688 1.36175 1.40363C1.79319 0.960376 2.31003 0.615626 2.91225 0.369375C3.51448 0.123125 4.17737 0 4.90094 0C5.26947 0 5.61552 0.0335796 5.93911 0.100739C6.26719 0.16342 6.57279 0.252966 6.85593 0.369375C7.13906 0.481307 7.39973 0.617864 7.63792 0.779046C7.87611 0.940228 8.08734 1.11484 8.27161 1.30289L7.50309 2.33042C7.45366 2.3931 7.39523 2.45131 7.32782 2.50504C7.26041 2.55429 7.16603 2.57891 7.04468 2.57891C6.96379 2.57891 6.88739 2.561 6.81548 2.52519C6.74357 2.48937 6.66717 2.44683 6.58627 2.39758C6.50538 2.34386 6.41549 2.28789 6.31662 2.22968C6.22224 2.167 6.10764 2.11104 5.97281 2.06179C5.84248 2.00806 5.68743 1.96329 5.50766 1.92747C5.33239 1.89165 5.12565 1.87374 4.88746 1.87374C4.50995 1.87374 4.16389 1.94314 3.8493 2.08193C3.5392 2.22073 3.26954 2.42445 3.04034 2.69308C2.81563 2.95724 2.64035 3.28408 2.51451 3.67361C2.39317 4.05865 2.3325 4.49966 2.3325 4.99664C2.3325 5.4981 2.39991 5.94359 2.53474 6.33311C2.67406 6.72263 2.86057 7.05171 3.09427 7.32035C3.33246 7.58451 3.60886 7.78599 3.92345 7.92478C4.23805 8.06358 4.57511 8.13297 4.93465 8.13297C5.14138 8.13297 5.33014 8.12402 5.50092 8.10611C5.6717 8.08373 5.83125 8.05015 5.97956 8.00537C6.12786 7.95612 6.26718 7.89344 6.39752 7.81733C6.52785 7.73674 6.66043 7.636 6.79526 7.51511C6.84919 7.47034 6.90761 7.43452 6.97053 7.40766C7.03345 7.37632 7.09861 7.36064 7.16603 7.36064Z" fill="white"/>
</svg>
