<svg width="15" height="15" viewBox="0 0 15 15" fill="none" xmlns="http://www.w3.org/2000/svg">
<path d="M6.25 1.875H2.5C2.33424 1.875 2.17527 1.94085 2.05806 2.05806C1.94085 2.17527 1.875 2.33424 1.875 2.5V6.25C1.875 6.41576 1.94085 6.57473 2.05806 6.69194C2.17527 6.80915 2.33424 6.875 2.5 6.875H6.25C6.41576 6.875 6.57473 6.80915 6.69194 6.69194C6.80915 6.57473 6.875 6.41576 6.875 6.25V2.5C6.875 2.33424 6.80915 2.17527 6.69194 2.05806C6.57473 1.94085 6.41576 1.875 6.25 1.875ZM5.625 5.625H3.125V3.125H5.625V5.625ZM12.5 1.875H8.75C8.58424 1.875 8.42527 1.94085 8.30806 2.05806C8.19085 2.17527 8.125 2.33424 8.125 2.5V6.25C8.125 6.41576 8.19085 6.57473 8.30806 6.69194C8.42527 6.80915 8.58424 6.875 8.75 6.875H12.5C12.6658 6.875 12.8247 6.80915 12.9419 6.69194C13.0592 6.57473 13.125 6.41576 13.125 6.25V2.5C13.125 2.33424 13.0592 2.17527 12.9419 2.05806C12.8247 1.94085 12.6658 1.875 12.5 1.875ZM11.875 5.625H9.375V3.125H11.875V5.625ZM6.25 8.125H2.5C2.33424 8.125 2.17527 8.19085 2.05806 8.30806C1.94085 8.42527 1.875 8.58424 1.875 8.75V12.5C1.875 12.6658 1.94085 12.8247 2.05806 12.9419C2.17527 13.0592 2.33424 13.125 2.5 13.125H6.25C6.41576 13.125 6.57473 13.0592 6.69194 12.9419C6.80915 12.8247 6.875 12.6658 6.875 12.5V8.75C6.875 8.58424 6.80915 8.42527 6.69194 8.30806C6.57473 8.19085 6.41576 8.125 6.25 8.125ZM5.625 11.875H3.125V9.375H5.625V11.875ZM10.625 8.125C9.24625 8.125 8.125 9.24625 8.125 10.625C8.125 12.0038 9.24625 13.125 10.625 13.125C12.0038 13.125 13.125 12.0038 13.125 10.625C13.125 9.24625 12.0038 8.125 10.625 8.125ZM10.625 11.875C9.93562 11.875 9.375 11.3144 9.375 10.625C9.375 9.93562 9.93562 9.375 10.625 9.375C11.3144 9.375 11.875 9.93562 11.875 10.625C11.875 11.3144 11.3144 11.875 10.625 11.875Z" fill="#9A9A9A"/>
</svg>
