<svg width="15" height="15" viewBox="0 0 15 15" fill="none" xmlns="http://www.w3.org/2000/svg">
<path d="M9.6875 10C10.5504 10 11.25 9.30044 11.25 8.4375C11.25 7.57456 10.5504 6.875 9.6875 6.875C8.82456 6.875 8.125 7.57456 8.125 8.4375C8.125 9.30044 8.82456 10 9.6875 10Z" fill="#525252"/>
<path d="M7.5 8.4375C7.5 7.92813 7.7475 7.48 8.125 7.195C7.85614 6.98824 7.52667 6.87578 7.1875 6.875C6.7731 6.875 6.37567 7.03962 6.08265 7.33265C5.78962 7.62567 5.625 8.0231 5.625 8.4375C5.625 8.8519 5.78962 9.24933 6.08265 9.54235C6.37567 9.83538 6.7731 10 7.1875 10C7.52667 9.99922 7.85614 9.88676 8.125 9.68C7.93145 9.53569 7.7742 9.34826 7.66571 9.13259C7.55722 8.91691 7.50048 8.67892 7.5 8.4375Z" fill="#525252"/>
<path d="M12.5 2.5H2.5C1.81062 2.5 1.25 3.06062 1.25 3.75V11.25C1.25 11.9394 1.81062 12.5 2.5 12.5H12.5C13.1894 12.5 13.75 11.9394 13.75 11.25V3.75C13.75 3.06062 13.1894 2.5 12.5 2.5ZM2.5 11.25V3.75H12.5L12.5013 11.25H2.5Z" fill="#525252"/>
</svg>
