<svg width="15" height="15" viewBox="0 0 15 15" fill="none" xmlns="http://www.w3.org/2000/svg">
<path d="M12.5 2.5H2.5C1.81062 2.5 1.25 3.06062 1.25 3.75V11.25C1.25 11.9394 1.81062 12.5 2.5 12.5H12.5C13.1894 12.5 13.75 11.9394 13.75 11.25V3.75C13.75 3.06062 13.1894 2.5 12.5 2.5ZM12.5 3.75V4.06938L7.5 7.95875L2.5 4.07V3.75H12.5ZM2.5 11.25V5.6525L7.11625 9.24312C7.22569 9.32909 7.36083 9.37582 7.5 9.37582C7.63917 9.37582 7.77431 9.32909 7.88375 9.24312L12.5 5.6525L12.5013 11.25H2.5Z" fill="#191919"/>
</svg>
