<svg width="15" height="15" viewBox="0 0 15 15" fill="none" xmlns="http://www.w3.org/2000/svg">
<path d="M7.50001 3.75C6.84816 3.75083 6.22325 4.01014 5.76232 4.47106C5.3014 4.93199 5.04209 5.5569 5.04126 6.20875H6.29126C6.29126 5.54188 6.83376 5 7.50001 5C8.16626 5 8.70876 5.54188 8.70876 6.20875C8.70876 6.5825 8.40813 6.85375 7.94876 7.225C7.79869 7.34256 7.65455 7.46751 7.51689 7.59938C6.89314 8.2225 6.87501 8.88438 6.87501 8.95813V9.375H8.12501L8.12438 8.97937C8.12501 8.96937 8.14501 8.73813 8.40001 8.48375C8.49376 8.39 8.61189 8.29625 8.73439 8.1975C9.22126 7.80312 9.95813 7.2075 9.95813 6.20875C9.95764 5.55691 9.69852 4.9319 9.23766 4.47092C8.77679 4.00994 8.15185 3.75066 7.50001 3.75ZM6.87501 10H8.12501V11.25H6.87501V10Z" fill="#525252"/>
<path d="M7.5 1.25C4.05375 1.25 1.25 4.05375 1.25 7.5C1.25 10.9462 4.05375 13.75 7.5 13.75C10.9462 13.75 13.75 10.9462 13.75 7.5C13.75 4.05375 10.9462 1.25 7.5 1.25ZM7.5 12.5C4.74313 12.5 2.5 10.2569 2.5 7.5C2.5 4.74313 4.74313 2.5 7.5 2.5C10.2569 2.5 12.5 4.74313 12.5 7.5C12.5 10.2569 10.2569 12.5 7.5 12.5Z" fill="#525252"/>
</svg>
