<svg width="15" height="15" viewBox="0 0 15 15" fill="none" xmlns="http://www.w3.org/2000/svg">
<path d="M7.5 5V8.125H10.625V6.875H8.75V5H7.5Z" fill="#9A9A9A"/>
<path d="M13.3075 5.31061C13.0256 4.64189 12.6163 4.03437 12.1025 3.52186C11.3247 2.74409 10.3361 2.2113 9.25875 1.98936C8.511 1.83716 7.74025 1.83716 6.9925 1.98936C5.91417 2.20988 4.92467 2.74311 4.1475 3.52249C3.63493 4.03554 3.22583 4.6424 2.9425 5.30999C2.64944 6.00287 2.49895 6.74768 2.5 7.49999L2.50062 7.51561H1.25L3.125 9.99999L5 7.51561H3.75062L3.75 7.49999C3.7482 6.62834 4.00841 5.77628 4.49688 5.05436C4.81195 4.58854 5.21309 4.18718 5.67875 3.87186C6.15246 3.55274 6.68382 3.32898 7.24312 3.21311C8.37971 2.97942 9.56257 3.20663 10.5317 3.84478C11.5008 4.48293 12.1769 5.4798 12.4112 6.61624C12.5291 7.19866 12.5291 7.79881 12.4112 8.38124C12.2969 8.94101 12.073 9.47266 11.7525 9.94561C11.5963 10.1775 11.4169 10.3956 11.2188 10.5931C10.8195 10.9919 10.3474 11.3104 9.82813 11.5312C9.56364 11.643 9.28877 11.7284 9.0075 11.7862C8.42527 11.904 7.82535 11.904 7.24312 11.7862C6.68394 11.6716 6.15279 11.448 5.68 11.1281C5.44747 10.971 5.23045 10.7921 5.03187 10.5937L4.14813 11.4775C4.67008 12.0002 5.29002 12.4147 5.97244 12.6974C6.65485 12.9801 7.38634 13.1254 8.125 13.125C8.87691 13.1247 9.62121 12.9745 10.3144 12.6831C11.3191 12.258 12.1788 11.5502 12.7887 10.6456C13.4165 9.7168 13.7514 8.62106 13.75 7.49999C13.7516 6.74783 13.6011 6.00312 13.3075 5.31061Z" fill="#9A9A9A"/>
</svg>
