<svg width="15" height="15" viewBox="0 0 15 15" fill="none" xmlns="http://www.w3.org/2000/svg">
<path d="M13.75 5C13.7561 4.95646 13.7561 4.91229 13.75 4.86875V4.81875C13.7393 4.78387 13.7246 4.75032 13.7063 4.71875C13.6981 4.70075 13.6876 4.68393 13.675 4.66875L13.6125 4.5875L13.5625 4.55L13.4875 4.49375L7.8625 1.36875C7.76749 1.3139 7.65971 1.28502 7.55 1.28502C7.44029 1.28502 7.33251 1.3139 7.2375 1.36875L1.6125 4.49375L1.55625 4.5375L1.4875 4.5875C1.46934 4.60794 1.45457 4.63115 1.44375 4.65625C1.42375 4.67419 1.40686 4.69531 1.39375 4.71875C1.37752 4.74618 1.36492 4.77559 1.35625 4.80625C1.35275 4.82694 1.35275 4.84807 1.35625 4.86875C1.31328 4.90581 1.27729 4.95026 1.25 5V10C1.25081 10.1114 1.28137 10.2205 1.33851 10.3161C1.39565 10.4117 1.47729 10.4903 1.575 10.5438L7.2 13.6688C7.22583 13.6838 7.25303 13.6964 7.28125 13.7063H7.34375C7.44643 13.7312 7.55357 13.7312 7.65625 13.7063H7.71875L7.80625 13.6688L13.4312 10.5438C13.5278 10.4895 13.6082 10.4105 13.6642 10.315C13.7202 10.2195 13.7498 10.1108 13.75 10V5ZM7.5 7.41875L3.1625 5L4.8875 4.05L9.15625 6.4875L7.5 7.41875ZM7.5 2.59375L11.8375 5L10.4375 5.78125L6.16875 3.3375L7.5 2.59375ZM2.5 6.0625L6.875 8.5125V12.0625L2.5 9.63125V6.0625ZM8.125 12.0625V8.5125L10 7.4625V9.375L11.25 8.75V6.7625L12.5 6.06875V9.63125L8.125 12.0625Z" fill="#525252"/>
</svg>
